PathFileType	3	(X/Y/Z)	running_1__view2_aligned.trc
DataRate	CameraRate	NumFrames	NumMarkers	Units	OrigDataRate	OrigDataStartFrame	OrigNumFrames
100.0	100.0	10	19	mm	100.0	5821	6426
Frame#	Time	pelvis			neck			head			hip_left			hip_right			knee_left			knee_right			ankle_left			ankle_right			heel_left			heel_right			toe_left			toe_right			shoulder_left			shoulder_right			elbow_left			elbow_right			wrist_left			wrist_right			
		X1	Y1	Z1	X2	Y2	Z2	X3	Y3	Z3	X4	Y4	Z4	X5	Y5	Z5	X6	Y6	Z6	X7	Y7	Z7	X8	Y8	Z8	X9	Y9	Z9	X10	Y10	Z10	X11	Y11	Z11	X12	Y12	Z12	X13	Y13	Z13	X14	Y14	Z14	X15	Y15	Z15	X16	Y16	Z16	X17	Y17	Z17	X18	Y18	Z18	X19	Y19	Z19	
5821	58.20000	27.276804	934.097108	111.398966	34.938321	1479.360406	223.896802	30.921814	1564.503707	368.931802	100.776024	936.186218	108.794057	-46.222791	932.008035	114.003830	132.517045	532.345503	252.470757	-95.097376	521.948875	191.215520	130.148939	137.746161	154.056297	-119.779359	251.237606	-114.706677	125.528666	90.191725	118.017648	-116.097165	243.929891	-168.600221	135.002550	82.597101	337.383321	-145.193221	91.676673	-50.763227	187.754186	1436.625371	149.079882	-131.982269	1447.379459	196.532123	261.529845	1219.551509	-3.752789	-231.603869	1203.326523	107.804755	312.238009	1072.616785	170.172804	-98.025695	1154.782956	294.528854
5822	58.21000	30.479853	935.143584	111.578068	37.474083	1480.909502	224.106948	32.668070	1565.298187	369.115497	104.030587	937.348831	108.976935	-43.071209	932.938370	114.179160	135.665232	532.805048	245.845808	-92.181514	523.918087	195.597750	132.753316	135.608475	148.292771	-117.778183	251.613035	-104.864157	127.918042	87.739514	112.223334	-114.292999	243.942097	-158.252992	137.617942	80.305229	332.439751	-142.615099	93.404102	-40.290817	191.208892	1438.085020	152.151517	-128.874783	1450.011496	194.841217	265.854307	1219.633137	4.803517	-229.241337	1209.032441	101.526781	307.424105	1076.977445	177.295016	-100.910070	1155.949298	287.775084
5823	58.22000	33.682902	936.190061	111.757170	40.009845	1482.458597	224.317094	34.414326	1566.092668	369.299192	107.285150	938.511444	109.159813	-39.919626	933.868704	114.354490	138.813419	533.264592	239.220858	-89.265653	525.887300	199.979979	135.357693	133.470788	142.529245	-115.777008	251.988464	-95.021637	130.307419	85.287303	106.429019	-112.488834	243.954302	-147.905762	140.233334	78.013356	327.496181	-140.036976	95.131531	-29.818406	194.663599	1439.544670	155.223152	-125.767297	1452.643533	193.150310	270.178769	1219.714764	13.359823	-226.878806	1214.738358	95.248808	302.610202	1081.338104	184.417227	-103.794445	1157.115640	281.021313
5824	58.23000	36.885951	937.236537	111.936272	42.545607	1484.007692	224.527239	36.160582	1566.887149	369.482886	110.539713	939.674057	109.342692	-36.768044	934.799039	114.529820	141.961606	533.724136	232.595909	-86.349791	527.856513	204.362208	137.962070	131.333102	136.765718	-113.775832	252.363893	-85.179117	132.696796	82.835092	100.634704	-110.684668	243.966507	-137.558533	142.848726	75.721483	322.552610	-137.458854	96.858960	-19.345996	198.118305	1441.004319	158.294787	-122.659811	1455.275570	191.459404	274.503231	1219.796391	21.916128	-224.516274	1220.444276	88.970834	297.796298	1085.698764	191.539438	-106.678821	1158.281982	274.267543
5825	58.24000	40.089000	938.283013	112.115374	45.081369	1485.556788	224.737385	37.906838	1567.681630	369.666581	113.794276	940.836670	109.525570	-33.616462	935.729374	114.705150	145.109794	534.183680	225.970960	-83.433929	529.825726	208.744438	140.566446	129.195416	131.002192	-111.774656	252.739321	-75.336596	135.086173	80.382881	94.840389	-108.880502	243.978713	-127.211304	145.464118	73.429610	317.609040	-134.880731	98.586389	-8.873585	201.573012	1442.463969	161.366421	-119.552325	1457.907606	189.768497	278.827693	1219.878019	30.472434	-222.153742	1226.150193	82.692861	292.982394	1090.059423	198.661649	-109.563196	1159.448324	267.513773
5826	58.25000	43.292050	939.329489	112.294476	47.617130	1487.105883	224.947531	39.653094	1568.476111	369.850276	117.048839	941.999283	109.708448	-30.464880	936.659709	114.880481	148.257981	534.643225	219.346011	-80.518067	531.794938	213.126667	143.170823	127.057730	125.238666	-109.773481	253.114750	-65.494076	137.475549	77.930670	89.046074	-107.076336	243.990918	-116.864074	148.079510	71.137737	312.665469	-132.302609	100.313818	1.598825	205.027719	1443.923618	164.438056	-116.444839	1460.539643	188.077591	283.152155	1219.959646	39.028739	-219.791210	1231.856111	76.414887	288.168490	1094.420082	205.783861	-112.447571	1160.614665	260.760002
5827	58.26000	46.495099	940.375965	112.473577	50.152892	1488.654979	225.157677	41.399350	1569.270592	370.033971	120.303402	943.161896	109.891327	-27.313297	937.590044	115.055811	151.406168	535.102769	212.721062	-77.602205	533.764151	217.508897	145.775200	124.920044	119.475140	-107.772305	253.490179	-55.651556	139.864926	75.478459	83.251759	-105.272170	244.003123	-106.516845	150.694902	68.845864	307.721899	-129.724487	102.041247	12.071236	208.482425	1445.383268	167.509691	-113.337353	1463.171680	186.386684	287.476617	1220.041274	47.585045	-217.428678	1237.562028	70.136914	283.354586	1098.780742	212.906072	-115.331947	1161.781007	254.006232
5828	58.27000	49.698148	941.422442	112.652679	52.688654	1490.204074	225.367822	43.145606	1570.065072	370.217666	123.557965	944.324509	110.074205	-24.161715	938.520379	115.231141	154.554355	535.562313	206.096113	-74.686343	535.733364	221.891126	148.379577	122.782357	113.711614	-105.771130	253.865608	-45.809036	142.254303	73.026248	77.457444	-103.468005	244.015329	-96.169615	153.310294	66.553991	302.778329	-127.146364	103.768675	22.543646	211.937132	1446.842917	170.581326	-110.229866	1465.803717	184.695778	291.801079	1220.122901	56.141350	-215.066147	1243.267946	63.858940	278.540682	1103.141401	220.028283	-118.216322	1162.947349	247.252462
5829	58.28000	52.901197	942.468918	112.831781	55.224416	1491.753169	225.577968	44.891862	1570.859553	370.401360	126.812528	945.487122	110.257083	-21.010133	939.450713	115.406471	157.702542	536.021857	199.471163	-71.770482	537.702576	226.273356	150.983954	120.644671	107.948087	-103.769954	254.241037	-35.966516	144.643679	70.574037	71.663129	-101.663839	244.027534	-85.822386	155.925686	64.262119	297.834758	-124.568242	105.496104	33.016057	215.391838	1448.302567	173.652961	-107.122380	1468.435753	183.004872	296.125541	1220.204528	64.697656	-212.703615	1248.973863	57.580967	273.726779	1107.502061	227.150494	-121.100697	1164.113691	240.498692
5830	58.29000	53.317668	941.973369	112.927553	54.978911	1491.509044	225.027617	43.914340	1570.401416	369.867667	127.219488	944.927709	110.249707	-20.584152	939.019029	115.605394	158.021566	533.891748	192.923362	-69.859415	538.443461	233.362140	150.617913	123.775361	94.545866	-102.843396	251.965340	-23.063799	144.054322	75.121137	57.823913	-101.177773	240.896561	-72.453043	155.661515	63.909125	279.733701	-122.051342	105.465669	48.265813	216.369685	1448.037262	175.560843	-107.261010	1468.102211	180.800109	298.158686	1217.483290	72.117120	-212.011475	1250.014774	51.799934	267.986884	1108.939528	235.950592	-124.434332	1160.180096	234.726000
